<?xml version="1.0" encoding="UTF-8" standalone="no"?>
<!DOCTYPE svg PUBLIC "-//W3C//DTD SVG 1.1//EN" "http://www.w3.org/Graphics/SVG/1.1/DTD/svg11.dtd">
<svg width="100%" height="100%" viewBox="0 0 132 40" version="1.1" xmlns="http://www.w3.org/2000/svg" xmlns:xlink="http://www.w3.org/1999/xlink" xml:space="preserve" xmlns:serif="http://www.serif.com/" style="fill-rule:evenodd;clip-rule:evenodd;stroke-linejoin:round;stroke-miterlimit:2;">
    <g transform="matrix(1,0,0,1,1.76,-0.02)">
        <g transform="matrix(1,0,0,1,-1.34047,18.4089)">
            <g transform="matrix(20,0,0,20,23.2905,9.03613)">
                <path d="M0.497,-0.588L0.26,-0.588L0.26,-0.462L0.475,-0.462L0.475,-0.296L0.26,-0.296L0.26,-0L0.064,-0L0.064,-0.754L0.497,-0.754L0.497,-0.588Z" style="fill:rgb(239,230,219);fill-rule:nonzero;"/>
            </g>
            <g transform="matrix(20,0,0,20,34.1305,9.03613)">
                <path d="M0.242,-0.513L0.242,-0.429L0.244,-0.429C0.261,-0.46 0.284,-0.482 0.314,-0.497C0.343,-0.512 0.375,-0.519 0.41,-0.519L0.445,-0.52L0.445,-0.345C0.442,-0.346 0.44,-0.347 0.438,-0.348C0.435,-0.349 0.433,-0.35 0.43,-0.351C0.42,-0.355 0.41,-0.358 0.4,-0.359C0.39,-0.36 0.379,-0.361 0.368,-0.361C0.317,-0.361 0.284,-0.346 0.267,-0.317C0.25,-0.287 0.242,-0.25 0.242,-0.206L0.242,-0L0.06,-0L0.06,-0.513L0.242,-0.513Z" style="fill:rgb(239,230,219);fill-rule:nonzero;"/>
            </g>
            <g transform="matrix(20,0,0,20,43.1905,9.03613)">
                <path d="M0.587,-0.245L0.587,-0.226L0.204,-0.226C0.204,-0.189 0.214,-0.16 0.233,-0.141C0.252,-0.121 0.281,-0.111 0.318,-0.111C0.337,-0.111 0.354,-0.115 0.369,-0.122C0.383,-0.129 0.395,-0.141 0.405,-0.158L0.58,-0.158C0.565,-0.097 0.533,-0.053 0.483,-0.025C0.432,0.003 0.378,0.017 0.319,0.017C0.234,0.017 0.164,-0.006 0.107,-0.053C0.05,-0.099 0.022,-0.166 0.022,-0.255C0.022,-0.34 0.049,-0.407 0.102,-0.456C0.155,-0.505 0.223,-0.529 0.306,-0.529C0.395,-0.529 0.465,-0.503 0.514,-0.452C0.563,-0.401 0.587,-0.331 0.587,-0.244L0.587,-0.245ZM0.207,-0.331L0.418,-0.331C0.413,-0.355 0.401,-0.374 0.382,-0.389C0.362,-0.404 0.34,-0.411 0.315,-0.411C0.288,-0.411 0.265,-0.404 0.245,-0.391C0.225,-0.377 0.212,-0.357 0.207,-0.331Z" style="fill:rgb(239,230,219);fill-rule:nonzero;"/>
            </g>
            <g transform="matrix(20,0,0,20,55.3905,9.03613)">
                <path d="M0.46,-0.497L0.399,-0.381C0.391,-0.385 0.382,-0.389 0.373,-0.392C0.363,-0.395 0.353,-0.398 0.343,-0.4C0.336,-0.401 0.329,-0.403 0.322,-0.404C0.315,-0.405 0.308,-0.405 0.301,-0.405L0.291,-0.405C0.287,-0.404 0.283,-0.403 0.28,-0.402C0.271,-0.4 0.262,-0.397 0.255,-0.392C0.248,-0.387 0.244,-0.379 0.244,-0.37C0.244,-0.359 0.249,-0.35 0.259,-0.344C0.268,-0.339 0.279,-0.335 0.291,-0.332C0.298,-0.33 0.304,-0.329 0.31,-0.328C0.316,-0.327 0.321,-0.326 0.326,-0.325C0.369,-0.316 0.404,-0.301 0.433,-0.278C0.461,-0.255 0.475,-0.22 0.475,-0.173C0.475,-0.108 0.451,-0.06 0.403,-0.031C0.355,-0.001 0.302,0.015 0.244,0.017L0.233,0.017C0.196,0.017 0.161,0.012 0.126,0.002C0.091,-0.008 0.057,-0.022 0.026,-0.041L0.092,-0.169C0.103,-0.16 0.116,-0.153 0.131,-0.146C0.146,-0.139 0.161,-0.132 0.176,-0.127C0.187,-0.124 0.197,-0.121 0.207,-0.119C0.217,-0.117 0.227,-0.116 0.236,-0.116C0.239,-0.116 0.242,-0.116 0.245,-0.117C0.248,-0.117 0.251,-0.117 0.254,-0.118C0.264,-0.12 0.273,-0.124 0.281,-0.13C0.289,-0.136 0.293,-0.144 0.293,-0.155C0.293,-0.17 0.286,-0.18 0.272,-0.187C0.258,-0.193 0.241,-0.198 0.222,-0.202C0.215,-0.203 0.207,-0.205 0.201,-0.206C0.194,-0.208 0.186,-0.21 0.179,-0.212C0.15,-0.219 0.124,-0.232 0.101,-0.251C0.077,-0.269 0.065,-0.301 0.065,-0.347C0.065,-0.409 0.088,-0.455 0.134,-0.484C0.18,-0.513 0.23,-0.528 0.285,-0.529L0.291,-0.529C0.32,-0.529 0.349,-0.527 0.378,-0.522C0.406,-0.517 0.433,-0.508 0.46,-0.496L0.46,-0.497Z" style="fill:rgb(239,230,219);fill-rule:nonzero;"/>
            </g>
            <g transform="matrix(20,0,0,20,65.6505,9.03613)">
                <path d="M0.06,-0.83L0.242,-0.83L0.242,-0.448L0.244,-0.448C0.265,-0.475 0.289,-0.496 0.316,-0.509C0.342,-0.522 0.373,-0.529 0.408,-0.529C0.473,-0.529 0.522,-0.509 0.554,-0.47C0.585,-0.431 0.601,-0.378 0.601,-0.313L0.601,-0L0.419,-0L0.419,-0.268C0.419,-0.297 0.414,-0.323 0.405,-0.347C0.395,-0.372 0.372,-0.384 0.337,-0.384C0.302,-0.384 0.278,-0.372 0.264,-0.347C0.25,-0.323 0.243,-0.297 0.242,-0.268L0.242,-0L0.06,-0L0.06,-0.83Z" style="fill:rgb(239,230,219);fill-rule:nonzero;"/>
            </g>
            <g transform="matrix(20,0,0,20,85.7305,9.03613)">
                <path d="M0.493,-0.588L0.26,-0.588L0.26,-0.462L0.481,-0.462L0.481,-0.296L0.26,-0.296L0.26,-0.166L0.493,-0.166L0.493,-0L0.064,-0L0.064,-0.754L0.493,-0.754L0.493,-0.588Z" style="fill:rgb(239,230,219);fill-rule:nonzero;"/>
            </g>
            <g transform="matrix(20,0,0,20,96.7305,9.03613)">
                <path d="M0.621,-0.513L0.621,-0L0.439,-0L0.439,-0.057L0.437,-0.057C0.422,-0.033 0.402,-0.015 0.377,-0.004C0.352,0.008 0.325,0.015 0.298,0.016C0.295,0.017 0.293,0.017 0.29,0.017L0.282,0.017C0.206,0.017 0.144,-0.01 0.096,-0.065C0.047,-0.119 0.023,-0.183 0.023,-0.256C0.023,-0.329 0.047,-0.393 0.095,-0.448C0.142,-0.502 0.204,-0.529 0.28,-0.529L0.29,-0.529C0.293,-0.529 0.297,-0.529 0.3,-0.528C0.326,-0.526 0.352,-0.52 0.377,-0.508C0.402,-0.498 0.422,-0.482 0.439,-0.462L0.439,-0.513L0.621,-0.513ZM0.328,-0.372C0.291,-0.371 0.263,-0.36 0.242,-0.337C0.221,-0.314 0.211,-0.286 0.211,-0.255C0.211,-0.222 0.221,-0.195 0.242,-0.173C0.263,-0.151 0.291,-0.14 0.328,-0.14C0.365,-0.14 0.394,-0.151 0.414,-0.173C0.435,-0.195 0.445,-0.223 0.445,-0.256C0.445,-0.287 0.435,-0.314 0.414,-0.337C0.394,-0.36 0.365,-0.372 0.328,-0.372Z" style="fill:rgb(239,230,219);fill-rule:nonzero;"/>
            </g>
            <g transform="matrix(20,0,0,20,110.37,9.03613)">
                <path d="M0.259,-0.363L0.259,-0L0.077,-0L0.077,-0.363L0.018,-0.363L0.018,-0.513L0.077,-0.513L0.077,-0.667L0.259,-0.667L0.259,-0.513L0.362,-0.513L0.362,-0.363L0.259,-0.363Z" style="fill:rgb(239,230,219);fill-rule:nonzero;"/>
            </g>
            <g transform="matrix(20,0,0,20,117.57,9.03613)">
                <path d="M0.46,-0.497L0.399,-0.381C0.391,-0.385 0.382,-0.389 0.373,-0.392C0.363,-0.395 0.353,-0.398 0.343,-0.4C0.336,-0.401 0.329,-0.403 0.322,-0.404C0.315,-0.405 0.308,-0.405 0.301,-0.405L0.291,-0.405C0.287,-0.404 0.283,-0.403 0.28,-0.402C0.271,-0.4 0.262,-0.397 0.255,-0.392C0.248,-0.387 0.244,-0.379 0.244,-0.37C0.244,-0.359 0.249,-0.35 0.259,-0.344C0.268,-0.339 0.279,-0.335 0.291,-0.332C0.298,-0.33 0.304,-0.329 0.31,-0.328C0.316,-0.327 0.321,-0.326 0.326,-0.325C0.369,-0.316 0.404,-0.301 0.433,-0.278C0.461,-0.255 0.475,-0.22 0.475,-0.173C0.475,-0.108 0.451,-0.06 0.403,-0.031C0.355,-0.001 0.302,0.015 0.244,0.017L0.233,0.017C0.196,0.017 0.161,0.012 0.126,0.002C0.091,-0.008 0.057,-0.022 0.026,-0.041L0.092,-0.169C0.103,-0.16 0.116,-0.153 0.131,-0.146C0.146,-0.139 0.161,-0.132 0.176,-0.127C0.187,-0.124 0.197,-0.121 0.207,-0.119C0.217,-0.117 0.227,-0.116 0.236,-0.116C0.239,-0.116 0.242,-0.116 0.245,-0.117C0.248,-0.117 0.251,-0.117 0.254,-0.118C0.264,-0.12 0.273,-0.124 0.281,-0.13C0.289,-0.136 0.293,-0.144 0.293,-0.155C0.293,-0.17 0.286,-0.18 0.272,-0.187C0.258,-0.193 0.241,-0.198 0.222,-0.202C0.215,-0.203 0.207,-0.205 0.201,-0.206C0.194,-0.208 0.186,-0.21 0.179,-0.212C0.15,-0.219 0.124,-0.232 0.101,-0.251C0.077,-0.269 0.065,-0.301 0.065,-0.347C0.065,-0.409 0.088,-0.455 0.134,-0.484C0.18,-0.513 0.23,-0.528 0.285,-0.529L0.291,-0.529C0.32,-0.529 0.349,-0.527 0.378,-0.522C0.406,-0.517 0.433,-0.508 0.46,-0.496L0.46,-0.497Z" style="fill:rgb(239,230,219);fill-rule:nonzero;"/>
            </g>
        </g>
        <path d="M13.63,9C13.63,7.557 13.057,6.174 12.037,5.153C11.017,4.133 9.633,3.56 8.19,3.56C6.747,3.56 5.364,4.133 4.343,5.153C3.323,6.174 2.75,7.557 2.75,9L2.75,25.45L7.23,28.66L7.23,36.48L9.15,36.48L9.15,28.66L13.63,25.45L13.63,9ZM11.71,18.2L9.15,20.76L9.15,18.36L11.71,15.8L11.71,18.2ZM4.71,15.8L7.27,18.36L7.27,20.76L4.71,18.2L4.71,15.8ZM11.71,13.08L8.19,16.6L4.67,13L4.67,10.6L8.19,14.12L11.71,10.6L11.71,13.08ZM8.19,5.48C8.964,5.483 9.716,5.741 10.33,6.212C10.944,6.683 11.387,7.343 11.59,8.09L8.19,11.48L4.79,8.09C4.986,7.336 5.425,6.667 6.04,6.188C6.655,5.709 7.411,5.446 8.19,5.44L8.19,5.48ZM4.67,24.48L4.67,20.88L7.23,23.44L7.23,26.3L4.67,24.48ZM9.15,26.31L9.15,23.44L11.71,20.88L11.71,24.47L9.15,26.31Z" style="fill:rgb(239,230,219);fill-rule:nonzero;"/>
    </g>
</svg>
